# xmcd
#
# Track frame offsets: 
#        150
#        4645
#        19429
#        29369
#        43132
#        66148
#        86330
#        98017
#        106992
#        122413
#
# Disc length: 1690 seconds
#
# Revision: 0
# Processed by: cddbd v1.5.2PL0 Copyright (c) Steve Scherf et al.
# Submitted via: ExactAudioCopy v0.99pb5
#
DISCID=7306980a
DTITLE=Lee Hazlewood - Love And Other Crimes
DYEAR=1968
DGENRE=Country
TTITLE0=Love And Other Crimes
TTITLE1=Morning Dew
TTITLE2=She Comes Running
TTITLE3=Rosacoke Street
TTITLE4=She's Funny That Way
TTITLE5=The House Song
TTITLE6=Wait And See
TTITLE7=Forget Marie
TTITLE8=Pour Man
TTITLE9=Love And Other Crimes
EXTD=
EXTT0=
EXTT1=
EXTT2=
EXTT3=
EXTT4=
EXTT5=
EXTT6=
EXTT7=
EXTT8=
EXTT9=
PLAYORDER=
